<svg xmlns="http://www.w3.org/2000/svg" version="1.1" xmlns:xlink="http://www.w3.org/1999/xlink" width="512" height="512" x="0" y="0" viewBox="0 0 43.349 43.349" style="enable-background:new 0 0 512 512" xml:space="preserve" fill-rule="evenodd" class=""><g><path d="M31.538 14.386c-.824-5.027-5.214-8.584-9.863-10.742-4.65 2.158-9.04 5.715-9.863 10.742zM37.209 24.88H6.14v16.917h2.832v-7.898c0-.182.026-.338.084-.511.363-1.078 1.481-1.93 3.186-2.807 1.704.877 2.822 1.729 3.185 2.807.058.173.084.329.084.511v7.898h2.894v-7.898c0-.182.026-.338.084-.511.363-1.078 1.481-1.93 3.186-2.807 1.704.877 2.822 1.729 3.185 2.807.058.173.084.329.084.511v7.898h2.894v-7.898c0-.182.026-.338.084-.511.363-1.078 1.481-1.93 3.186-2.807 1.704.877 2.822 1.729 3.185 2.807.059.173.084.329.084.511v7.898h2.832zM31.65 23.917h-3.236v-4.002c0-.748-.613-1.361-1.362-1.361s-1.361.613-1.361 1.361v4.002h-2.655v-4.002c0-.748-.613-1.361-1.361-1.361s-1.362.613-1.362 1.361v4.002h-2.655v-4.002c0-.748-.612-1.361-1.361-1.361s-1.362.613-1.362 1.361v4.002H11.7v-8.568H31.65zM35.855 15.347h5.12v-3.818h-5.12zM2.374 15.347h5.12v-3.818h-5.12zM35.855 10.566h5.12c3.707-1.848.84-4.954-2.56-7.984-3.4 3.03-6.267 6.136-2.56 7.984zM2.375 10.566h5.119c3.707-1.848.84-4.954-2.56-7.984-3.4 3.03-6.267 6.136-2.56 7.984zM43.35 16.31h-9.87l1.337 2.826h7.196zM9.868 16.31H0l1.337 2.826h7.195z" fill="#ed8a32" opacity="1" data-original="#000000" class=""></path><path fill-rule="nonzero" d="m22.68 4.217-1.005-2.664-1.006 2.664z" fill="#ed8a32" opacity="1" data-original="#000000" class=""></path><path d="M5.177 41.797H2.375V20.099h5.119v3.818H5.177zM40.975 20.1v21.697h-2.803v-17.88h-2.316v-3.818zM8.395 40.499h26.558v1.297H8.395z" fill="#ed8a32" opacity="1" data-original="#000000" class=""></path></g></svg>